<?xml version="1.0" standalone="no"?><!DOCTYPE svg PUBLIC "-//W3C//DTD SVG 1.1//EN" "http://www.w3.org/Graphics/SVG/1.1/DTD/svg11.dtd"><svg t="1772015088546" class="icon" viewBox="0 0 1024 1024" version="1.1" xmlns="http://www.w3.org/2000/svg" p-id="1616" xmlns:xlink="http://www.w3.org/1999/xlink" width="200" height="200"><path d="M435.252 309.032l27.04 127.406h38.488l10.422-45.298 10.642 45.298h38.386l27.04-127.406h-39.912l-8.838 48.254-10.758-48.254h-33.258l-10.478 47.836-8.784-47.836h-39.99z" fill="#333333" p-id="1617"></path><path d="M297.082 716.438l-47.374-127.406h-34.752l-47.11 127.406h43.106l6.696-21.558h29.52l6.716 21.558h43.198zM236.738 661.4h-8.688l4.338-13.966 4.35 13.966z" fill="#333333" p-id="1618"></path><path d="M521.014 676.958l0.012 0.034 0.014 0.032c0.24 0.648 0.418 1.532 0.418 2.74 0 1.012-0.23 1.862-0.684 2.66-0.288 0.466-0.874 1.1-2.176 1.742-1.114 0.5-3.022 0.932-6.054 0.932-2.932 0-5.376-0.256-7.384-0.708-1.822-0.46-3.142-1.12-4.108-1.866-0.85-0.702-1.582-1.678-2.14-3.112-0.556-1.432-0.948-3.5-0.948-6.386v-6h-40.076v6c0 7.636 1.552 14.572 4.904 20.594l0.02 0.034 0.018 0.034a42.25 42.25 0 0 0 13.086 14.108l0.02 0.014 0.018 0.012c5.256 3.502 11.074 6.088 17.414 7.78l0.032 0.008 0.032 0.008a77.02 77.02 0 0 0 19.112 2.406c6.92 0 13.334-0.76 19.196-2.35 5.854-1.586 11.064-3.958 15.522-7.2l0.022-0.016 0.022-0.018c4.492-3.332 8.018-7.454 10.478-12.346 2.502-4.972 3.672-10.516 3.672-16.488 0-5.582-1.008-10.796-3.156-15.532-2.062-4.66-5.094-8.754-9.004-12.28-3.786-3.51-8.34-6.528-13.572-9.102-5.118-2.596-10.892-4.9-17.292-6.928a107.056 107.056 0 0 1-8.422-3.062c-2.34-0.996-4.228-1.992-5.718-2.962-1.292-0.87-2.114-1.662-2.622-2.322a2.34 2.34 0 0 1-0.356-1.314c0-0.872 0.226-1.598 0.746-2.342l0.026-0.034 0.022-0.034c0.474-0.696 1.312-1.472 2.888-2.168 1.416-0.626 3.486-1.074 6.43-1.074 2.952 0 4.918 0.522 6.204 1.204 1.416 0.75 2.284 1.66 2.846 2.728l0.026 0.048 0.028 0.05c0.666 1.208 1.088 2.748 1.088 4.792v6h39.838v-6c0-8.354-2.148-15.892-6.644-22.35-4.352-6.38-10.358-11.202-17.792-14.51-7.398-3.368-15.764-4.966-24.956-4.966-6.898 0-13.376 0.82-19.392 2.516-5.994 1.638-11.37 4.076-16.048 7.376-4.674 3.284-8.412 7.35-11.11 12.196-2.782 4.94-4.118 10.432-4.118 16.33 0 6.04 1.28 11.62 4.03 16.554l0.01 0.016 0.008 0.016c2.594 4.588 6.082 8.562 10.384 11.922l0.022 0.016 0.02 0.016c4.116 3.156 8.738 5.89 13.836 8.224l0.026 0.012 0.024 0.01a163.058 163.058 0 0 0 15.318 5.924l0.02 0.008c4.216 1.38 7.426 2.65 9.724 3.792l0.064 0.032 0.064 0.03c2.45 1.146 3.956 2.128 4.792 2.866 0.842 0.744 1.154 1.312 1.276 1.654z" fill="#333333" p-id="1619"></path><path d="M807.25 712.032l0.022-0.01c7.274-2.996 13.628-7.256 19.002-12.774 5.38-5.524 9.5-12.058 12.38-19.528 2.96-7.536 4.398-15.736 4.398-24.528v-4.834c0-8.838-1.436-17.044-4.402-24.54-2.882-7.47-7.03-14-12.458-19.518-5.38-5.578-11.772-9.84-19.106-12.784-7.336-3.018-15.32-4.484-23.876-4.484h-43.328v127.406h43.728c8.456 0 16.36-1.442 23.64-4.406z m-23.64-28.994h-3.732v-60.526h3.332c3.398 0 6.14 0.59 8.364 1.602l0.018 0.008 0.018 0.008a13.998 13.998 0 0 1 5.614 4.528l0.016 0.022 0.016 0.022c1.536 2.022 2.834 4.752 3.746 8.376l0.012 0.044 0.01 0.044c0.95 3.548 1.472 7.868 1.472 13.034v4.992c0 6.906-0.924 12.356-2.546 16.536l-0.006 0.016-0.006 0.016c-1.562 4.1-3.7 6.794-6.226 8.514l-0.018 0.012-0.016 0.012c-2.486 1.718-5.73 2.74-10.068 2.74z" fill="#333333" p-id="1620"></path><path d="M643.666 208H380.334c-17.858 0-32.334 14.476-32.334 32.334V488H100.5C82.586 488 68 502.44 68 520.334v263.332C68 801.56 82.586 816 100.5 816h265c2.222 0 4.396-0.222 6.5-0.648 2.104 0.426 4.278 0.648 6.5 0.648h265c2.576 0 5.088-0.3 7.5-0.866 2.412 0.566 4.924 0.866 7.5 0.866h265c17.914 0 32.5-14.44 32.5-32.334V520.334c0-17.894-14.586-32.334-32.5-32.334H676V240.334c0-17.858-14.476-32.334-32.334-32.334zM397.876 486.124V257.876h228.248v228.248H397.876z m-279.76 280V537.876H346v228.248H118.116z m507.768 0H398V537.876h227.884v228.248z m280-228.248v228.248H676.116V537.876h229.768z" fill="#333333" p-id="1621"></path></svg>